<svg width="327" height="16" viewBox="0 0 327 16" fill="none" xmlns="http://www.w3.org/2000/svg">
<g clip-path="url(#clip0)">
<path d="M14.7423 11.3392C14.6616 11.1442 14.586 10.9392 14.5053 10.7642L14.1322 9.92924L14.1171 9.91424C13.0079 7.51424 11.823 5.07424 10.5675 2.67424L10.5171 2.57424C10.3911 2.33924 10.265 2.07924 10.1339 1.83924C9.97257 1.55424 9.81626 1.24924 9.55912 0.95924C9.30847 0.655805 8.99302 0.411334 8.63553 0.243467C8.27804 0.0756006 7.88743 -0.0114746 7.49189 -0.0114746C7.09635 -0.0114746 6.70574 0.0756006 6.34826 0.243467C5.99077 0.411334 5.67532 0.655805 5.42467 0.95924C5.18769 1.24924 5.01122 1.55424 4.84988 1.83924C4.72383 2.09924 4.59777 2.35424 4.46668 2.58924L4.41626 2.68924C3.18097 5.08924 1.97593 7.52924 0.866683 9.92924L0.836431 9.95924C0.725507 10.2192 0.594414 10.4892 0.468364 10.7792C0.387691 10.9542 0.307019 11.1442 0.226347 11.3542C0.00854824 11.9041 -0.0610017 12.5008 0.0245514 13.0855C0.110105 13.6701 0.347808 14.2226 0.714235 14.6884C1.08066 15.1543 1.56316 15.5174 2.11419 15.742C2.66522 15.9666 3.26575 16.0449 3.8566 15.9692C4.42305 15.8953 4.9685 15.7082 5.45996 15.4192C6.11542 15.0542 6.74567 14.5242 7.45156 13.7592C8.15744 14.5242 8.80282 15.0542 9.44315 15.4242C10.0589 15.7827 10.7563 15.9805 11.47 15.9992C12.2966 16.0026 13.0965 15.7094 13.722 15.1736C14.3476 14.6378 14.7565 13.8957 14.8734 13.0842C15.0085 12.5011 14.9628 11.8912 14.7423 11.3342V11.3392ZM7.50198 12.1692C6.63475 11.0692 6.07004 10.0592 5.87845 9.19424C5.79907 8.87371 5.78196 8.54112 5.82803 8.21424C5.86332 7.95924 5.95912 7.73424 6.09021 7.54424C6.39273 7.10924 6.92214 6.83924 7.50198 6.83924C7.77734 6.8309 8.05048 6.89049 8.29689 7.01266C8.54329 7.13484 8.75525 7.31578 8.91374 7.53924C9.04483 7.73924 9.14063 7.95924 9.17089 8.21424C9.2213 8.50424 9.20114 8.83924 9.12046 9.19424C8.92887 10.0442 8.36416 11.0642 7.50198 12.1692ZM13.9255 12.9092C13.8682 13.3212 13.7031 13.7111 13.4465 14.0401C13.19 14.3691 12.851 14.6256 12.4633 14.7842C12.0801 14.9442 11.6566 14.9892 11.2432 14.9442C10.8398 14.8942 10.4364 14.7642 10.023 14.5242C9.33652 14.1035 8.71924 13.5807 8.19273 12.9742C9.25156 11.6742 9.89189 10.4892 10.1339 9.43424C10.2499 8.93424 10.265 8.48424 10.2146 8.06924C10.1516 7.67588 10.0037 7.30066 9.78097 6.96924C9.52665 6.60987 9.18719 6.31796 8.79244 6.11918C8.3977 5.9204 7.95975 5.82084 7.5171 5.82924C6.58433 5.82924 5.7524 6.25924 5.2482 6.96424C5.02122 7.29482 4.87454 7.67303 4.81962 8.06924C4.75408 8.48924 4.7692 8.95424 4.9003 9.43424C5.14231 10.4892 5.79777 11.6892 6.84147 12.9842C6.3239 13.6023 5.70519 14.1297 5.01122 14.5442C4.59273 14.7842 4.19441 14.9092 3.79105 14.9592C3.16377 15.0389 2.53012 14.8699 2.02784 14.4888C1.52556 14.1077 1.19525 13.5455 1.1087 12.9242C1.05828 12.5242 1.09357 12.1242 1.25492 11.6742C1.30534 11.5142 1.38097 11.3542 1.46164 11.1642C1.57257 10.9042 1.70366 10.6342 1.82971 10.3642L1.84988 10.3292C2.93895 7.94424 4.12887 5.50924 5.36416 3.12424L5.41458 3.02424C5.54063 2.78424 5.66668 2.52924 5.79778 2.28924C5.92887 2.03424 6.07004 1.78924 6.25156 1.58924C6.40867 1.40325 6.60499 1.25368 6.82669 1.15105C7.04839 1.04842 7.29008 0.995234 7.53475 0.995234C7.77942 0.995234 8.02111 1.04842 8.24281 1.15105C8.46451 1.25368 8.66083 1.40325 8.81794 1.58924C8.99441 1.78924 9.14063 2.03424 9.27172 2.28924C9.39777 2.52924 9.52383 2.78924 9.65492 3.02424L9.70534 3.12424C10.9356 5.50924 12.1255 7.94424 13.2347 10.3292L13.2499 10.3442C13.381 10.6042 13.4919 10.8942 13.6179 11.1442C13.6986 11.3392 13.7793 11.4942 13.8297 11.6592C13.9255 12.1092 13.9759 12.5092 13.9255 12.9092ZM20.944 12.0592C20.5641 12.0648 20.1877 11.9854 19.843 11.827C19.4982 11.6686 19.1938 11.4352 18.9524 11.1442C18.4099 10.5242 18.122 9.72478 18.1457 8.90424C18.1374 8.06584 18.4346 7.25266 18.9826 6.61424C19.2362 6.31955 19.5517 6.08355 19.9072 5.92288C20.2626 5.7622 20.6492 5.68074 21.0398 5.68424C21.4073 5.67426 21.7714 5.75714 22.0977 5.92507C22.4241 6.09301 22.702 6.34049 22.9053 6.64424L22.9558 5.85924H24.428V11.8992H22.9507L22.9003 11.0192C22.6906 11.3436 22.4008 11.6094 22.0585 11.7914C21.7161 11.9734 21.3324 12.0656 20.944 12.0592ZM21.3272 10.6192C21.6196 10.6192 21.8768 10.5392 22.1188 10.3942C22.3406 10.2342 22.5221 10.0242 22.6633 9.76924C22.7894 9.51424 22.8549 9.20924 22.8549 8.86924C22.8746 8.57394 22.8166 8.27863 22.6867 8.0122C22.5568 7.74577 22.3594 7.51734 22.1137 7.34924C21.8777 7.20342 21.6052 7.12613 21.3272 7.12613C21.0491 7.12613 20.7766 7.20342 20.5406 7.34924C20.3188 7.50924 20.1373 7.71924 19.9961 7.97424C19.8628 8.25546 19.7972 8.56357 19.8045 8.87424C19.7848 9.16954 19.8428 9.46485 19.9727 9.73128C20.1026 9.99771 20.3001 10.2261 20.5457 10.3942C20.7826 10.5392 21.0398 10.6192 21.3272 10.6192ZM26.949 4.22924C26.949 4.40424 26.9188 4.56424 26.8381 4.69424C26.7574 4.81924 26.6465 4.93424 26.5003 5.01424C26.3541 5.09424 26.1978 5.12424 26.0364 5.12424C25.8751 5.12424 25.7137 5.09424 25.5675 5.01424C25.4292 4.93789 25.3129 4.82774 25.2297 4.69424C25.1516 4.55181 25.1133 4.39127 25.1188 4.22924C25.1188 4.04924 25.1541 3.88924 25.2297 3.76424C25.3104 3.61424 25.4263 3.52424 25.5675 3.44424C25.7137 3.36424 25.87 3.32924 26.0364 3.32924C26.1969 3.32557 26.3556 3.36327 26.497 3.43864C26.6384 3.51401 26.7577 3.62448 26.8432 3.75924C26.9165 3.90501 26.9529 4.06636 26.949 4.22924ZM25.2347 11.8792V5.84924H26.8381V11.8892H25.2297L25.2347 11.8792ZM31.1238 7.42924V7.44924C31.0482 7.41424 30.9474 7.39924 30.8717 7.38424C30.7709 7.36424 30.6902 7.36424 30.5944 7.36424C30.1457 7.36424 29.8079 7.49424 29.586 7.76424C29.344 8.03924 29.2331 8.42424 29.2331 8.91924V11.8842H27.6247V5.84424H29.102L29.1524 6.75924C29.3137 6.43924 29.5053 6.19924 29.7776 6.01924C30.0484 5.84435 30.3673 5.75701 30.6902 5.76924C30.8062 5.76924 30.9171 5.77924 31.0129 5.79924C31.0633 5.81424 31.0936 5.81424 31.1238 5.82924V7.42924ZM31.7692 11.8792V3.36924H33.3726V6.61924C33.5995 6.32924 33.8566 6.10424 34.1793 5.92924C34.6901 5.68086 35.2705 5.6104 35.8267 5.72924C36.3829 5.84807 36.8825 6.14928 37.2448 6.58424C37.7885 7.20554 38.0765 8.00699 38.0516 8.82924C38.0599 9.66763 37.7626 10.4808 37.2146 11.1192C36.9611 11.4139 36.6455 11.6499 36.2901 11.8106C35.9347 11.9713 35.548 12.0527 35.1574 12.0492C34.7899 12.0592 34.4259 11.9763 34.0995 11.8084C33.7732 11.6405 33.4953 11.393 33.2919 11.0892L33.2415 11.8742L31.7692 11.8892V11.8792ZM34.87 10.6192C35.1574 10.6192 35.4146 10.5392 35.6566 10.3942C35.8784 10.2342 36.06 10.0242 36.2011 9.76924C36.3322 9.51424 36.3927 9.20924 36.3927 8.86924C36.3927 8.53424 36.3322 8.22924 36.2011 7.97424C36.0687 7.72836 35.8827 7.51484 35.6566 7.34924C35.4206 7.20342 35.1481 7.12613 34.87 7.12613C34.592 7.12613 34.3195 7.20342 34.0835 7.34924C33.8566 7.50924 33.6801 7.71924 33.5339 7.97424C33.4006 8.25546 33.335 8.56357 33.3423 8.87424C33.3227 9.16954 33.3806 9.46485 33.5105 9.73128C33.6405 9.99771 33.8379 10.2261 34.0835 10.3942C34.3205 10.5392 34.5776 10.6192 34.87 10.6192ZM38.6566 11.8842V5.84424H40.1339L40.1843 6.62924C40.37 6.32833 40.6333 6.08207 40.9471 5.91593C41.2609 5.74979 41.6138 5.6698 41.9692 5.68424C42.3756 5.67728 42.7751 5.7893 43.1177 6.00629C43.4603 6.22329 43.7307 6.53562 43.8953 6.90424C44.0717 7.28424 44.1675 7.75424 44.1675 8.27924V11.8992H42.5591V8.48924C42.5591 8.06924 42.4633 7.73924 42.2717 7.49424C42.0801 7.25424 41.8179 7.12424 41.4852 7.12424C41.2432 7.12424 41.0314 7.17424 40.8448 7.28424C40.6684 7.39924 40.5221 7.54424 40.4112 7.74924C40.2991 7.95646 40.2435 8.18914 40.2499 8.42424V11.8842H38.6566ZM44.9692 11.8842V3.36424H46.5776V6.61424C46.7955 6.32262 47.0789 6.08538 47.4053 5.92134C47.7318 5.7573 48.0923 5.67098 48.4583 5.66924C48.8382 5.66373 49.2145 5.74311 49.5593 5.90151C49.9041 6.05991 50.2085 6.29326 50.4499 6.58424C50.9897 7.2055 51.2756 8.00451 51.2516 8.82424C51.2603 9.66271 50.963 10.476 50.4146 11.1142C50.1611 11.4089 49.8455 11.6449 49.4901 11.8056C49.1347 11.9663 48.748 12.0477 48.3574 12.0442C47.9899 12.0542 47.6259 11.9713 47.2995 11.8034C46.9732 11.6355 46.6953 11.388 46.4919 11.0842L46.4465 11.8692L44.9692 11.8842ZM48.0852 10.6192C48.3776 10.6192 48.6348 10.5392 48.8717 10.3942C49.0986 10.2342 49.2751 10.0242 49.4213 9.76924C49.5474 9.51424 49.6129 9.20924 49.6129 8.86924C49.6326 8.57394 49.5746 8.27863 49.4447 8.0122C49.3148 7.74577 49.1173 7.51734 48.8717 7.34924C48.6357 7.20342 48.3632 7.12613 48.0852 7.12613C47.8071 7.12613 47.5346 7.20342 47.2986 7.34924C47.0768 7.50924 46.8953 7.71924 46.7541 7.97424C46.6133 8.25295 46.5474 8.5629 46.5625 8.87424C46.5428 9.16954 46.6008 9.46485 46.7307 9.73128C46.8606 9.99771 47.058 10.2261 47.3037 10.3942C47.5406 10.5392 47.7826 10.6192 48.0852 10.6192Z" fill="#FF385C"/>
</g>
<g clip-path="url(#clip1)">
<path d="M93.1981 3.41309V7.28151H89.6734V3.41309H88V12.6474H89.6734V8.90458H93.1981V12.6474H94.8715V3.41309H93.1981Z" fill="#33475B"/>
<path d="M100.227 9.66242C100.227 10.0325 100.081 10.3874 99.8217 10.6491C99.5621 10.9108 99.21 11.0578 98.8428 11.0578C98.4756 11.0578 98.1235 10.9108 97.8639 10.6491C97.6043 10.3874 97.4584 10.0325 97.4584 9.66242V5.70721H95.8711V9.66242C95.8711 10.4561 96.1839 11.2172 96.7406 11.7784C97.2974 12.3396 98.0526 12.6548 98.8399 12.6548C99.6273 12.6548 100.382 12.3396 100.939 11.7784C101.496 11.2172 101.809 10.4561 101.809 9.66242V5.70721H100.227V9.66242Z" fill="#33475B"/>
<path d="M111.988 6.11462C111.988 5.30391 112.52 5.0469 113.103 5.0469C113.573 5.0469 114.193 5.40721 114.599 5.84439L115.639 4.60973C115.12 3.90232 114.067 3.41309 113.205 3.41309C111.484 3.41309 110.238 4.42957 110.238 6.11462C110.238 9.24093 114.029 8.24924 114.029 9.99875C114.029 10.5384 113.509 11.0152 112.914 11.0152C111.975 11.0152 111.671 10.5524 111.24 10.0632L110.086 11.2723C110.824 12.1854 111.734 12.6491 112.825 12.6491C114.461 12.6491 115.777 11.6202 115.777 10.012C115.777 6.54105 111.985 7.61952 111.985 6.11462" fill="#33475B"/>
<path d="M135.442 11.1722C134.504 11.1722 134.237 10.7632 134.237 10.1367V7.36413H135.695V5.95923H134.237V4.10559L132.628 4.83366V10.4813C132.628 11.9259 133.616 12.654 134.973 12.654C135.185 12.6579 135.398 12.6407 135.607 12.6027L136 11.1458C135.823 11.1582 135.619 11.1706 135.442 11.1706" fill="#33475B"/>
<path d="M106.269 5.75347C105.483 5.75347 104.934 5.98321 104.404 6.50798V3.46844H102.814V9.10209C102.814 11.2111 104.327 12.6557 106.026 12.6557C107.912 12.6557 109.571 11.1855 109.571 9.20539C109.571 7.2501 108.044 5.7543 106.269 5.7543V5.75347ZM106.259 11.0433C105.902 11.0433 105.554 10.9367 105.257 10.7369C104.96 10.5371 104.729 10.2532 104.593 9.92098C104.456 9.58876 104.42 9.2232 104.49 8.87053C104.56 8.51785 104.731 8.19389 104.984 7.93963C105.236 7.68536 105.557 7.5122 105.907 7.44205C106.257 7.3719 106.62 7.4079 106.949 7.54551C107.279 7.68312 107.561 7.91615 107.759 8.21514C107.957 8.51412 108.063 8.86563 108.063 9.22522C108.063 9.70741 107.873 10.1699 107.535 10.5108C107.196 10.8518 106.738 11.0433 106.259 11.0433Z" fill="#33475B"/>
<path d="M123.531 9.1211C123.531 7.13772 121.876 5.67084 119.987 5.67084C118.287 5.67084 116.774 7.1154 116.774 9.2244V14.8613H118.364V11.8177C118.894 12.3416 119.443 12.5722 120.228 12.5722C122.003 12.5722 123.53 11.0772 123.53 9.1211H123.531ZM122.026 9.10127C122.026 9.46085 121.92 9.81237 121.722 10.1114C121.523 10.4103 121.242 10.6434 120.912 10.781C120.583 10.9186 120.22 10.9546 119.87 10.8844C119.52 10.8143 119.199 10.6411 118.946 10.3869C118.694 10.1326 118.522 9.80864 118.453 9.45596C118.383 9.10328 118.419 8.73772 118.555 8.40551C118.692 8.07329 118.923 7.78935 119.22 7.58957C119.516 7.38979 119.865 7.28316 120.222 7.28316C120.7 7.28316 121.159 7.47471 121.497 7.81567C121.836 8.15663 122.026 8.61908 122.026 9.10127Z" fill="#33475B"/>
<path d="M128.667 5.59314V3.98329C128.878 3.88388 129.057 3.72609 129.182 3.52829C129.308 3.33049 129.375 3.1008 129.376 2.86598V2.82879C129.376 2.50003 129.246 2.18473 129.016 1.95225C128.785 1.71978 128.472 1.58918 128.146 1.58918H128.109C127.783 1.58918 127.47 1.71978 127.24 1.95225C127.009 2.18473 126.879 2.50003 126.879 2.82879V2.86598C126.881 3.1008 126.948 3.33049 127.073 3.52829C127.199 3.72609 127.378 3.88388 127.589 3.98329V5.59314C126.982 5.68668 126.411 5.94013 125.933 6.32782L121.553 2.88912C121.584 2.77573 121.6 2.65881 121.602 2.5412C121.602 2.26494 121.521 1.99474 121.37 1.76477C121.218 1.53481 121.002 1.35541 120.749 1.24927C120.495 1.14314 120.217 1.11503 119.948 1.1685C119.679 1.22198 119.432 1.35464 119.238 1.54969C119.044 1.74475 118.911 1.99345 118.858 2.26433C118.804 2.53521 118.831 2.8161 118.935 3.07147C119.04 3.32685 119.217 3.54523 119.445 3.69901C119.673 3.85278 119.94 3.93503 120.215 3.93536C120.454 3.93428 120.689 3.86988 120.897 3.74859L125.21 7.13109C124.823 7.72112 124.62 8.41518 124.63 9.12276C124.639 9.83034 124.86 10.5186 125.263 11.0979L123.952 12.4201C123.846 12.386 123.735 12.3679 123.624 12.3664C123.399 12.3666 123.179 12.434 122.992 12.5601C122.805 12.6862 122.659 12.8653 122.573 13.0749C122.487 13.2844 122.464 13.515 122.508 13.7374C122.552 13.9599 122.661 14.1642 122.82 14.3245C122.979 14.4849 123.182 14.5941 123.402 14.6384C123.623 14.6827 123.852 14.6601 124.06 14.5734C124.268 14.4866 124.445 14.3397 124.57 14.1512C124.695 13.9627 124.762 13.7411 124.763 13.5143C124.761 13.402 124.743 13.2906 124.709 13.1837L126.007 11.8755C126.43 12.2038 126.922 12.4301 127.446 12.537C127.969 12.644 128.51 12.6288 129.027 12.4926C129.543 12.3564 130.022 12.1029 130.426 11.7513C130.831 11.3998 131.15 10.9597 131.36 10.4646C131.569 9.96952 131.664 9.43266 131.636 8.89514C131.608 8.35762 131.458 7.8337 131.198 7.3635C130.938 6.89329 130.575 6.48929 130.136 6.18243C129.697 5.87557 129.195 5.67399 128.667 5.59314ZM128.129 10.8871C127.774 10.8868 127.427 10.7804 127.132 10.5814C126.837 10.3823 126.607 10.0996 126.471 9.76893C126.336 9.43824 126.3 9.07444 126.37 8.72349C126.439 8.37255 126.61 8.05022 126.861 7.79724C127.112 7.54427 127.432 7.37199 127.78 7.3022C128.129 7.23241 128.49 7.26823 128.818 7.40513C129.146 7.54204 129.426 7.77388 129.623 8.07136C129.821 8.36884 129.926 8.71861 129.926 9.07646C129.926 9.55646 129.737 10.0168 129.4 10.3562C129.064 10.6956 128.607 10.8863 128.131 10.8863" fill="#FF7A59"/>
</g>
<g clip-path="url(#clip2)">
<path d="M192.998 8.20523C192.998 10.4261 191.235 12.0626 189.071 12.0626C186.908 12.0626 185.145 10.4261 185.145 8.20523C185.145 5.96871 186.908 4.34784 189.071 4.34784C191.235 4.34784 192.998 5.96871 192.998 8.20523ZM191.279 8.20523C191.279 6.8174 190.257 5.86784 189.071 5.86784C187.885 5.86784 186.864 6.8174 186.864 8.20523C186.864 9.57914 187.885 10.5426 189.071 10.5426C190.257 10.5426 191.279 9.5774 191.279 8.20523Z" fill="#EA4335"/>
<path d="M201.468 8.20523C201.468 10.4261 199.705 12.0626 197.542 12.0626C195.378 12.0626 193.615 10.4261 193.615 8.20523C193.615 5.97045 195.378 4.34784 197.542 4.34784C199.705 4.34784 201.468 5.96871 201.468 8.20523ZM199.75 8.20523C199.75 6.8174 198.728 5.86784 197.542 5.86784C196.356 5.86784 195.334 6.8174 195.334 8.20523C195.334 9.57914 196.356 10.5426 197.542 10.5426C198.728 10.5426 199.75 9.5774 199.75 8.20523Z" fill="#FBBC05"/>
<path d="M209.586 4.58088V11.5061C209.586 14.3548 207.881 15.5183 205.866 15.5183C203.969 15.5183 202.827 14.2678 202.397 13.2452L203.893 12.6313C204.16 13.2591 204.813 14 205.864 14C207.154 14 207.954 13.2157 207.954 11.7391V11.1844H207.894C207.509 11.6522 206.768 12.0609 205.833 12.0609C203.875 12.0609 202.083 10.3809 202.083 8.21914C202.083 6.04175 203.875 4.34784 205.833 4.34784C206.766 4.34784 207.507 4.75653 207.894 5.21045H207.954V4.58262H209.586V4.58088ZM208.075 8.21914C208.075 6.86088 207.156 5.86784 205.986 5.86784C204.8 5.86784 203.807 6.86088 203.807 8.21914C203.807 9.56349 204.8 10.5426 205.986 10.5426C207.156 10.5426 208.075 9.56349 208.075 8.21914Z" fill="#4285F4"/>
<path d="M212.277 0.521729V11.8261H210.601V0.521729H212.277Z" fill="#34A853"/>
<path d="M218.81 9.47476L220.144 10.3513C219.714 10.9791 218.676 12.0609 216.883 12.0609C214.66 12.0609 212.999 10.3669 212.999 8.20346C212.999 5.90955 214.674 4.34607 216.691 4.34607C218.722 4.34607 219.715 5.93911 220.04 6.79998L220.218 7.23824L214.986 9.3739C215.387 10.1478 216.01 10.5426 216.883 10.5426C217.758 10.5426 218.365 10.1182 218.81 9.47476ZM214.704 8.08694L218.201 6.65563C218.009 6.1739 217.43 5.83824 216.749 5.83824C215.875 5.83824 214.66 6.59824 214.704 8.08694Z" fill="#EA4335"/>
<path d="M178.799 7.20173V5.5652H184.395C184.449 5.85042 184.478 6.18781 184.478 6.55303C184.478 7.78086 184.137 9.29912 183.039 10.3809C181.972 11.4765 180.608 12.0609 178.801 12.0609C175.451 12.0609 172.635 9.37216 172.635 6.07129C172.635 2.77042 175.451 0.0817261 178.801 0.0817261C180.654 0.0817261 181.974 0.798248 182.965 1.73216L181.794 2.88694C181.082 2.22955 180.119 1.71825 178.799 1.71825C176.353 1.71825 174.44 3.66086 174.44 6.07129C174.44 8.48173 176.353 10.4243 178.799 10.4243C180.385 10.4243 181.289 9.79651 181.868 9.22607C182.337 8.76346 182.646 8.1026 182.768 7.19999L178.799 7.20173Z" fill="#4285F4"/>
</g>
<g clip-path="url(#clip3)">
<path d="M281.751 9.12866L281.335 10.3034H281.3C281.231 10.0385 281.104 9.63541 280.896 9.15169L278.669 3.56587H276.487V12.4686H277.93V6.97495C277.93 6.62943 277.93 6.23785 277.919 5.75413C277.907 5.51227 277.884 5.32799 277.872 5.18979H277.907C277.976 5.5353 278.057 5.78868 278.115 5.94992L280.793 12.4456H281.808L284.463 5.89233C284.521 5.74261 284.578 5.44316 284.636 5.18979H284.671C284.636 5.84626 284.613 6.43364 284.601 6.79067V12.4341H286.136V3.54283H284.036L281.751 9.12866ZM287.591 6.05357H289.091V12.4341H287.591V6.05357ZM288.353 3.35856C288.099 3.35856 287.891 3.45069 287.718 3.61193C287.545 3.77317 287.452 3.98048 287.452 4.23386C287.452 4.47572 287.545 4.68303 287.718 4.84427C287.891 5.00551 288.099 5.08613 288.353 5.08613C288.607 5.08613 288.826 4.99399 288.987 4.84427C289.161 4.68303 289.253 4.47572 289.253 4.23386C289.253 3.992 289.161 3.78469 288.987 3.61193C288.837 3.45069 288.618 3.35856 288.353 3.35856ZM294.412 5.99599C294.135 5.9384 293.847 5.90385 293.57 5.90385C292.889 5.90385 292.265 6.05357 291.746 6.35302C291.227 6.65247 290.811 7.06708 290.546 7.58536C290.269 8.11515 290.13 8.72555 290.13 9.4281C290.13 10.0385 290.269 10.5798 290.534 11.0751C290.8 11.5588 291.169 11.9504 291.665 12.2153C292.138 12.4801 292.692 12.6184 293.316 12.6184C294.031 12.6184 294.643 12.4686 295.128 12.1922L295.139 12.1807V10.7986L295.082 10.8447C294.862 11.006 294.608 11.1442 294.354 11.2248C294.089 11.3169 293.847 11.363 293.639 11.363C293.039 11.363 292.565 11.1902 292.231 10.8102C291.884 10.4416 291.711 9.93486 291.711 9.30141C291.711 8.64493 291.884 8.12666 292.242 7.74659C292.6 7.36653 293.073 7.17074 293.65 7.17074C294.135 7.17074 294.631 7.33198 295.082 7.65446L295.139 7.70053V6.23785L295.128 6.22633C294.932 6.14571 294.712 6.05357 294.412 5.99599ZM299.364 5.94992C298.994 5.94992 298.648 6.06509 298.348 6.30695C298.094 6.51426 297.921 6.8137 297.771 7.17074H297.759V6.05357H296.259V12.4341H297.759V9.17472C297.759 8.6219 297.875 8.16121 298.129 7.82722C298.383 7.4817 298.706 7.30894 299.098 7.30894C299.237 7.30894 299.375 7.34349 299.548 7.36653C299.71 7.4126 299.825 7.45867 299.906 7.51625L299.964 7.56232V6.06509L299.929 6.05357C299.825 5.98447 299.618 5.94992 299.364 5.94992ZM303.45 5.91537C302.399 5.91537 301.557 6.22633 300.968 6.83674C300.368 7.44715 300.079 8.2879 300.079 9.34748C300.079 10.338 300.379 11.1442 300.957 11.7315C301.534 12.3074 302.319 12.6068 303.3 12.6068C304.327 12.6068 305.146 12.2959 305.735 11.6739C306.335 11.052 306.624 10.2228 306.624 9.19776C306.624 8.18425 306.347 7.37805 305.781 6.79067C305.239 6.2033 304.442 5.91537 303.45 5.91537ZM304.65 10.8217C304.373 11.1787 303.934 11.3515 303.392 11.3515C302.849 11.3515 302.411 11.1787 302.099 10.7986C301.788 10.4416 301.638 9.92334 301.638 9.26686C301.638 8.58735 301.799 8.06908 302.099 7.70053C302.411 7.33198 302.838 7.1477 303.38 7.1477C303.911 7.1477 304.327 7.32046 304.627 7.67749C304.927 8.03452 305.089 8.5528 305.089 9.23231C305.066 9.92334 304.939 10.4646 304.65 10.8217ZM309.971 8.70252C309.498 8.50673 309.198 8.35701 309.059 8.23032C308.944 8.11514 308.886 7.9539 308.886 7.74659C308.886 7.57384 308.955 7.40108 309.128 7.28591C309.301 7.17074 309.498 7.11315 309.786 7.11315C310.04 7.11315 310.306 7.15922 310.56 7.22832C310.814 7.29743 311.044 7.40108 311.229 7.53929L311.287 7.58536V6.18026L311.252 6.16874C311.079 6.09964 310.848 6.03054 310.571 5.97295C310.294 5.92688 310.04 5.90385 309.832 5.90385C309.117 5.90385 308.528 6.07661 308.066 6.45667C307.605 6.8137 307.386 7.29743 307.386 7.86177C307.386 8.16121 307.432 8.42611 307.536 8.64493C307.639 8.86376 307.789 9.07107 307.997 9.24383C308.205 9.40507 308.505 9.58934 308.921 9.7621C309.267 9.91182 309.532 10.027 309.694 10.1191C309.856 10.2113 309.959 10.3149 310.04 10.3955C310.098 10.4877 310.133 10.6029 310.133 10.7526C310.133 11.1787 309.809 11.386 309.151 11.386C308.898 11.386 308.632 11.34 308.32 11.2363C308.009 11.1326 307.72 10.9829 307.478 10.8102L307.42 10.7641V12.2268L307.455 12.2383C307.674 12.3419 307.94 12.411 308.263 12.4917C308.586 12.5493 308.874 12.5953 309.128 12.5953C309.902 12.5953 310.536 12.4226 310.987 12.0425C311.448 11.6739 311.691 11.2017 311.691 10.5913C311.691 10.1652 311.575 9.78513 311.321 9.4972C310.987 9.22079 310.571 8.93286 309.971 8.70252ZM315.65 5.91537C314.599 5.91537 313.757 6.22633 313.168 6.83674C312.579 7.44715 312.279 8.2879 312.279 9.34748C312.279 10.338 312.579 11.1442 313.157 11.7315C313.734 12.3074 314.519 12.6068 315.5 12.6068C316.527 12.6068 317.346 12.2959 317.935 11.6739C318.535 11.052 318.824 10.2228 318.824 9.19776C318.824 8.18425 318.547 7.37805 317.981 6.79067C317.439 6.2033 316.642 5.91537 315.65 5.91537ZM316.838 10.8217C316.561 11.1787 316.123 11.3515 315.58 11.3515C315.026 11.3515 314.599 11.1787 314.288 10.7986C313.976 10.4416 313.826 9.92334 313.826 9.26686C313.826 8.58735 313.988 8.06908 314.288 7.70053C314.599 7.33198 315.026 7.1477 315.569 7.1477C316.088 7.1477 316.515 7.32046 316.815 7.67749C317.115 8.03452 317.277 8.5528 317.277 9.23231C317.277 9.92334 317.127 10.4646 316.838 10.8217ZM326.845 7.28591V6.05357H325.333V4.16476L325.287 4.17627L323.856 4.60241L323.821 4.61393V6.05357H321.559V5.24737C321.559 4.87882 321.652 4.59089 321.813 4.40662C321.975 4.22234 322.217 4.13021 322.517 4.13021C322.725 4.13021 322.944 4.17627 323.187 4.27993L323.244 4.31448V3.01304L323.21 3.00152C323.002 2.93242 322.725 2.88635 322.367 2.88635C321.917 2.88635 321.525 2.99001 321.167 3.16276C320.809 3.35856 320.543 3.62345 320.347 3.98048C320.151 4.326 320.047 4.71758 320.047 5.16675V6.05357H318.997V7.27439H320.047V12.4341H321.559V7.28591H323.821V10.5683C323.821 11.9158 324.456 12.5953 325.726 12.5953C325.934 12.5953 326.153 12.5608 326.361 12.5262C326.58 12.4802 326.742 12.4226 326.834 12.3765L326.845 12.365V11.1326L326.788 11.1787C326.695 11.2363 326.615 11.2824 326.476 11.3169C326.361 11.3515 326.257 11.363 326.176 11.363C325.876 11.363 325.668 11.2939 325.518 11.1211C325.38 10.9599 325.31 10.695 325.31 10.3034V7.28591H326.845Z" fill="#737373"/>
<path d="M257.143 0.571411H264.218V7.63143H257.143V0.571411Z" fill="#F25022"/>
<path d="M264.957 0.571411H272.032V7.63143H264.957V0.571411Z" fill="#7FBA00"/>
<path d="M257.143 8.36853H264.218V15.4286H257.143V8.36853Z" fill="#00A4EF"/>
<path d="M264.957 8.36853H272.032V15.4286H264.957V8.36853Z" fill="#FFB900"/>
</g>
<defs>
<clipPath id="clip0">
<rect width="51.4286" height="16" fill="white"/>
</clipPath>
<clipPath id="clip1">
<rect width="48" height="13.7143" fill="white" transform="translate(88 1.14288)"/>
</clipPath>
<clipPath id="clip2">
<rect width="48" height="16" fill="white" transform="translate(172.571)"/>
</clipPath>
<clipPath id="clip3">
<rect width="69.7143" height="14.8571" fill="white" transform="translate(257.143 0.571411)"/>
</clipPath>
</defs>
</svg>
