<svg width="32" height="32" viewBox="0 0 32 32" fill="none" xmlns="http://www.w3.org/2000/svg">
<path d="M31.6635 0H0.212891V32H31.6635V0Z" fill="white"/>
<g clip-path="url(#clip0)">
<path d="M22.4179 12.7411C22.428 12.8832 22.428 13.0253 22.428 13.1675C22.428 17.5025 19.1507 22.4974 13.1608 22.4974C11.3155 22.4974 9.6012 21.9593 8.15918 21.0253C8.42137 21.0558 8.67345 21.0659 8.94573 21.0659C10.4684 21.0659 11.8701 20.5482 12.9894 19.6649C11.5575 19.6345 10.3575 18.6903 9.94403 17.3908C10.1457 17.4213 10.3474 17.4416 10.5592 17.4416C10.8516 17.4416 11.1441 17.4009 11.4163 17.3299C9.92388 17.0253 8.80453 15.7055 8.80453 14.1116V14.071C9.23812 14.3147 9.74236 14.467 10.2768 14.4873C9.39947 13.8984 8.8247 12.8933 8.8247 11.7563C8.8247 11.1472 8.98602 10.5888 9.26839 10.1015C10.8717 12.0913 13.2818 13.3908 15.9843 13.5329C15.9339 13.2893 15.9036 13.0355 15.9036 12.7817C15.9036 10.9746 17.3557 9.5025 19.1608 9.5025C20.0986 9.5025 20.9456 9.89844 21.5406 10.538C22.2767 10.3959 22.9826 10.1218 23.6078 9.74616C23.3658 10.5076 22.8515 11.1472 22.1759 11.5533C22.8313 11.4822 23.4666 11.2994 24.0515 11.0457C23.6079 11.6954 23.0532 12.274 22.4179 12.7411Z" fill="black"/>
</g>
<defs>
<clipPath id="clip0">
<rect width="15.8924" height="16" fill="white" transform="translate(8.15918 8)"/>
</clipPath>
</defs>
</svg>
